<svg xmlns="http://www.w3.org/2000/svg"><symbol fill="none" id="icon-arrow-back" viewBox="0 0 16 6"><path d="m0 3 5 2.887V.113L0 3Zm16-.5H4.5v1H16v-1Z" fill="currentColor"/></symbol><symbol fill="none" id="icon-arrow-up" viewBox="0 0 49 49"><g filter="url(#a)" transform="rotate(-90 24.499 24.476)"><circle cx="24.499" cy="24.476" r="24.476" fill="#fff"/><circle cx="24.499" cy="24.476" r="23.726" stroke="#862021" stroke-width="1.5"/></g><path d="M9.406 29.144c7.955.018 14.453-6.352 14.595-14.305.142 7.953 6.64 14.323 14.595 14.305" stroke="#862021" stroke-width="1.5"/><defs><filter id="a" x="-11.041" y="-11.064" width="71.079" height="71.079" filterUnits="userSpaceOnUse" color-interpolation-filters="sRGB"><feFlood flood-opacity="0" result="BackgroundImageFix"/><feGaussianBlur in="BackgroundImageFix" stdDeviation="5.532"/><feComposite in2="SourceAlpha" operator="in" result="effect1_backgroundBlur_20_181"/><feBlend in="SourceGraphic" in2="effect1_backgroundBlur_20_181" result="shape"/></filter></defs></symbol><symbol fill="none" id="icon-arrow" viewBox="0 0 21 22"><path d="m10 21 10-10L10 1m10 10.313H.033" stroke="currentColor"/></symbol><symbol fill="none" id="icon-burger" viewBox="0 0 40 40"><path stroke="#E1BB8F" d="M28 14.5H12m16 6H12m16 6H12"/></symbol><symbol fill="none" id="icon-button-to-top" viewBox="0 0 41 40"><rect x="1" y=".5" width="39" height="39" rx="19.5" stroke="#E1BB8F"/><path d="m20.5 12-2.887 5h5.774L20.5 12Zm0 16h.5V16.5h-1V28h.5Z" fill="#E1BB8F"/></symbol><symbol fill="none" id="icon-close-2" viewBox="0 0 40 40"><path d="m12 12 16 16m0-16L12 28" stroke="currentColor" stroke-linejoin="round"/></symbol><symbol fill="none" id="icon-close" viewBox="0 0 8 8"><path fill-rule="evenodd" clip-rule="evenodd" d="m4.006 4.707 2.968 2.968.707-.707L4.713 4l2.968-2.968-.707-.707-2.968 2.968-2.97-2.97-.708.706L3.3 4 .33 6.97l.706.708 2.971-2.97Z" fill="#284045"/></symbol><symbol fill="none" id="icon-heart" viewBox="0 0 14 12"><path d="M13.974 3.578C13.785 1.516 12.17 0 10.178 0c-1.32 0-2.53.67-3.23 1.714A3.658 3.658 0 0 0 3.823 0C1.832 0 .217 1.516.028 3.578c-.027.099-.08.571.108 1.366.296 1.143.97 2.162 1.938 2.981L6.947 12l4.954-4.075c.969-.82 1.642-1.838 1.938-2.98.216-.796.162-1.268.135-1.367Z" fill="currentColor"/></symbol><symbol fill="none" id="icon-i" viewBox="0 0 21 21"><circle cx="10" cy="10" r="10" fill="#fff"/><path d="M9.978 6.52a.832.832 0 0 1-.825-.825c0-.45.375-.825.825-.825.45 0 .825.375.825.825 0 .45-.375.825-.825.825Zm-.6 9.48V8.155h1.245V16H9.378Z" fill="#284045"/></symbol><symbol fill="none" id="icon-logo-client" viewBox="0 0 177 29"><path d="M113.605 8.187a9.31 9.31 0 0 0-.96.06v-3.24h.631c.959 0 2.069.06 2.517 1.23h.242V4.828h-4.528v8.096h2.098c2.069 0 3.116-.809 3.116-2.22.031-1.53-1.17-2.518-3.116-2.518Zm-.151 4.56h-.809V8.461c.21-.032.448-.09.781-.09 1.408 0 2.129.808 2.129 2.188 0 1.288-.657 2.188-2.097 2.188h-.004Zm17.453.146h-1.229l-1.078-2.668h-3.148l-1.079 2.668h-.269l1.471-3.536 1.919-4.706h.032l3.39 8.247-.009-.005Zm-5.369-2.846h2.998l-1.499-3.72-1.261 3.09-.242.63h.004Zm10.404-3.811c-.421-1.137-1.558-1.229-2.518-1.229h-.63v7.886h-1.138V4.797h4.528v1.407l-.242.032Zm8.699 2.55c0 2.609-1.86 4.258-4.286 4.258-2.426 0-4.139-1.53-4.139-4.107s1.859-4.259 4.286-4.259c2.426 0 4.139 1.558 4.139 4.108Zm-1.261.119c0-2.431-1.229-4.048-2.97-4.048s-2.938 1.59-2.938 3.956c0 2.367 1.229 4.048 2.998 4.048 1.768 0 2.91-1.558 2.91-3.956Zm-25.005 13.61c-.722 1.202-1.86 1.92-3.391 1.92-2.22 0-3.869-1.618-3.869-4.108 0-2.49 1.768-4.226 4.107-4.226 1.32 0 2.399.57 3.029 1.288a1.174 1.174 0 0 1-1.859-.21c-.302-.512-.658-.9-1.229-.9-1.709 0-2.819 1.617-2.819 3.778 0 2.458 1.347 3.898 3.116 3.898.959 0 2.01-.42 2.727-1.531l.178.091h.01Zm8.813-2.458c0 2.61-1.86 4.259-4.286 4.259-2.426 0-4.139-1.531-4.139-4.108s1.859-4.258 4.285-4.258 4.14 1.558 4.14 4.107Zm-1.261.12c0-2.431-1.229-4.049-2.97-4.049s-2.938 1.59-2.938 3.957c0 2.366 1.229 4.048 2.997 4.048 1.769 0 2.911-1.558 2.911-3.957Zm9.357 2.338c-.722 1.202-1.86 1.92-3.39 1.92-2.221 0-3.87-1.618-3.87-4.108 0-2.49 1.768-4.226 4.107-4.226 1.321 0 2.399.57 3.029 1.288a1.174 1.174 0 0 1-1.859-.21c-.302-.512-.658-.9-1.229-.9-1.709 0-2.819 1.617-2.819 3.778 0 2.458 1.348 3.898 3.116 3.898.959 0 2.01-.42 2.727-1.531l.179.091h.009Zm6.474-5.336c-.9-.42-1.531-.9-2.189-.9h-.269v7.886h-1.138v-7.886h-.269c-.658 0-1.261.448-2.13.9h-.032l.119-1.078h5.757l.151 1.078Zm8.608 2.878c0 2.61-1.86 4.259-4.286 4.259-2.426 0-4.139-1.531-4.139-4.108s1.859-4.258 4.285-4.258 4.14 1.558 4.14 4.107Zm-1.261.12c0-2.431-1.229-4.049-2.97-4.049s-2.938 1.59-2.938 3.957c0 2.366 1.229 4.048 2.997 4.048 1.768 0 2.911-1.558 2.911-3.957Zm4.349.063c-1.051-.36-1.951-.96-1.951-2.097 0-1.38 1.138-2.038 3.267-2.038h1.978v8.096h-1.137v-3.66h-.75c-.301 0-.42.06-.571.238l-2.188 3.418h-1.321l2.669-3.957h.004Zm1.17.119c.21 0 .781-.032 1.019-.06v-4.016h-.809c-1.471 0-2.189.782-2.189 1.951 0 1.17.75 2.13 1.979 2.13v-.005Zm9.805-4.259v8.097h-1.143v-4.14h-3.956v4.108h-1.138v-8.096h1.138v3.778h3.956v-3.746h1.143Zm1.466 0v6.27l4.437-6.27h1.347v.033l-.539.749v7.287h-.21v-6.986l-5.126 7.105h-.092v-8.187h.183Zm11.335 6.657h.238v1.408h-4.528v-8.096h4.528v1.407h-.238c-.42-1.138-1.558-1.23-2.517-1.23h-.63v3.57h2.129v.21h-2.129v3.896h.63c.991.06 2.097-.032 2.517-1.17v.005Zm-60.354-9.864 3.299-8.274h.027l3.39 8.274h-1.229l-2.641-6.565-2.609 6.565h-.237ZM19.308 9.654H9.654L19.308 0h9.654v19.367l-9.654 9.627V9.654Z" fill="currentColor"/><path d="M0 28.994V9.654L9.654 0v19.34h9.654l-9.654 9.654H0Zm51.422-4.829V9.175h-7.707v14.99h-5.099V4.829h17.873v19.336h-5.066Zm36.46-12.08h-4.318V9.206h9.654V4.83h-14.72v19.34h9.654c3.87 0 6.775-1.95 6.775-6.058-.032-4.107-2.938-6.026-7.045-6.026Zm-.48 7.977h-3.838v-3.87h3.838c1.197 0 2.399.48 2.399 1.919 0 1.44-1.197 1.95-2.399 1.95Zm-18.499-.005c-3.39 0-5.277-2.49-5.277-5.546 0-2.458 1.38-5.547 5.185-5.547 2.367 0 3.898 1.471 4.437 2.13l3.088-3.09a10.098 10.098 0 0 0-7.767-3.627c-5.606 0-10.015 4.14-10.015 10.166 0 5.606 4.41 10.165 10.015 10.165 3.358 0 6.328-1.617 8.188-4.139l-3.116-3.18c-.992 1.558-2.577 2.668-4.738 2.668ZM177.5 8.726h-31.004v.572H177.5v-.572Zm-74.961 20.268 1.617-1.617h-.013V0l-1.618 1.613v27.381h.014Z" fill="currentColor"/></symbol><symbol fill="none" id="icon-logo-rbc" viewBox="0 0 86 20"><path d="M26.926.714h6.312c4.402 0 7.277 1.901 7.277 5.935v.106c0 4.051-3.002 5.846-7.204 5.846h-2.747v7.303h-3.638V.714Zm6.33 9.328c2.42 0 3.711-1.155 3.711-3.269v-.107c0-2.274-1.382-3.162-3.71-3.162H30.6v6.538h2.656Zm16.72 9.862h-7.003V.714h12.333V3.54h-8.713v4.85h3.456c4.311 0 6.95 1.794 6.95 5.633v.106c.017 3.714-2.511 5.775-7.023 5.775Zm-.109-2.737c2.42 0 3.62-1.066 3.62-3.056v-.106c0-1.955-1.2-3.039-3.765-3.039h-3.13v6.201h3.275ZM59.652.711h3.657V9.4l7.53-8.724h3.93l-8.131 9.168 8.55 10.04h-4.312l-7.567-8.938V19.9h-3.657V.71ZM18.027.725H0v17.554L18.027.726ZM1.617 19.916h18.028V2.345L1.617 19.916Z" fill="currentColor"/></symbol><symbol id="icon-ok" viewBox="0 0 10 15"><path d="M4.719.586C2.59.586.867 2.249.867 4.299c0 2.051 1.724 3.714 3.852 3.714 2.127 0 3.851-1.663 3.851-3.714C8.57 2.25 6.846.586 4.719.586Zm0 5.249c-.88 0-1.592-.688-1.592-1.536 0-.847.712-1.535 1.592-1.535.879 0 1.592.688 1.592 1.535 0 .848-.713 1.536-1.592 1.536Zm1.421 5.132c1.542-.303 2.466-1.007 2.515-1.045a.985.985 0 0 0 .162-1.419 1.074 1.074 0 0 0-1.472-.156c-.01.007-.995.736-2.617.737-1.621 0-2.627-.73-2.637-.737a1.074 1.074 0 0 0-1.472.156.985.985 0 0 0 .162 1.42c.05.038 1.011.76 2.597 1.056l-2.21 2.226a.984.984 0 0 0 .027 1.428c.204.189.465.283.727.283.275 0 .549-.104.754-.31L4.728 12.5l2.26 2.121c.41.394 1.072.394 1.48 0a.984.984 0 0 0 0-1.429L6.14 10.967Z"/></symbol><symbol fill="none" id="icon-play" viewBox="0 0 25 28"><path d="M23 13 .5 25.99V.01L23 13Z" fill="#284045" transform="translate(1 1)"/></symbol><symbol fill="none" id="icon-psb-logo" viewBox="0 0 216 37"><path d="M138.245 10.821c-.4 0-.878.04-1.167.073V6.952h.767c1.167 0 2.519.072 3.063 1.495h.295V6.735h-5.51v9.852h2.552c2.519 0 3.792-.984 3.792-2.702.039-1.863-1.423-3.064-3.792-3.064Zm-.183 5.55h-.984v-5.216c.255-.039.545-.111.95-.111 1.713 0 2.591.984 2.591 2.663 0 1.568-.8 2.663-2.552 2.663h-.005Zm21.238.177h-1.496l-1.312-3.247h-3.83l-1.313 3.247h-.328l1.791-4.303 2.335-5.727h.039l4.125 10.036-.011-.006Zm-6.533-3.464h3.647l-1.823-4.525-1.535 3.758-.294.767h.005Zm12.661-4.636c-.512-1.384-1.896-1.495-3.064-1.495h-.767v9.596h-1.384V6.697h5.51v1.712l-.295.04Zm10.588 3.102c0 3.175-2.263 5.182-5.215 5.182-2.953 0-5.038-1.862-5.038-4.998s2.263-5.182 5.215-5.182c2.953 0 5.038 1.896 5.038 4.998Zm-1.535.145c0-2.958-1.495-4.926-3.614-4.926-2.118 0-3.575 1.935-3.575 4.815 0 2.88 1.496 4.926 3.648 4.926 2.151 0 3.541-1.896 3.541-4.815Zm-30.428 16.563c-.878 1.462-2.263 2.335-4.125 2.335-2.702 0-4.709-1.968-4.709-4.998 0-3.03 2.151-5.143 4.998-5.143 1.607 0 2.919.695 3.686 1.567-.656.696-1.79.545-2.263-.255-.367-.623-.8-1.095-1.495-1.095-2.08 0-3.431 1.968-3.431 4.598 0 2.99 1.64 4.742 3.792 4.742 1.168 0 2.446-.512 3.319-1.863l.217.112h.011Zm10.725-2.992c0 3.175-2.263 5.182-5.216 5.182-2.952 0-5.037-1.863-5.037-4.999 0-3.135 2.263-5.181 5.215-5.181 2.953 0 5.038 1.895 5.038 4.998Zm-1.535.144c0-2.957-1.495-4.926-3.614-4.926-2.118 0-3.575 1.935-3.575 4.815 0 2.88 1.496 4.926 3.647 4.926 2.152 0 3.542-1.896 3.542-4.815Zm11.383 2.848c-.879 1.462-2.263 2.335-4.126 2.335-2.702 0-4.709-1.968-4.709-4.998 0-3.03 2.152-5.143 4.998-5.143 1.607 0 2.919.695 3.686 1.567-.656.696-1.79.545-2.262-.255-.367-.623-.801-1.095-1.496-1.095-2.079 0-3.431 1.968-3.431 4.598 0 2.99 1.641 4.742 3.792 4.742 1.168 0 2.447-.512 3.32-1.863l.216.112h.012Zm7.879-6.494c-1.095-.512-1.862-1.095-2.663-1.095h-.328v9.596h-1.384v-9.596h-.328c-.801 0-1.535.544-2.591 1.095h-.039l.144-1.312h7.006l.183 1.312Zm10.476 3.502c0 3.175-2.263 5.182-5.215 5.182-2.953 0-5.038-1.863-5.038-4.999 0-3.135 2.263-5.181 5.216-5.181 2.952 0 5.037 1.895 5.037 4.998Zm-1.535.144c0-2.957-1.495-4.926-3.614-4.926-2.118 0-3.575 1.935-3.575 4.815 0 2.88 1.496 4.926 3.648 4.926 2.151 0 3.541-1.896 3.541-4.815Zm5.293.078c-1.279-.439-2.374-1.167-2.374-2.552 0-1.679 1.384-2.48 3.975-2.48h2.407v9.853h-1.384v-4.454h-.912c-.367 0-.511.072-.695.29l-2.663 4.158h-1.607l3.247-4.815h.006Zm1.423.145c.256 0 .951-.04 1.24-.072v-4.888h-.984c-1.79 0-2.663.951-2.663 2.374 0 1.424.911 2.591 2.407 2.591v-.005Zm11.931-5.182v9.853h-1.39v-5.038h-4.815v4.999h-1.384v-9.852h1.384v4.598h4.815v-4.56h1.39Zm1.786.001v7.628l5.398-7.628h1.64v.039l-.656.911v8.868h-.256v-8.5l-6.238 8.645h-.111v-9.963h.223Zm13.791 8.1h.289v1.713h-5.51v-9.852h5.51v1.712h-.289c-.512-1.384-1.896-1.496-3.064-1.496h-.767v4.343h2.591v.255h-2.591v4.743h.767c1.207.072 2.552-.039 3.064-1.423v.005Zm-73.444-12.004 4.015-10.069h.033l4.125 10.07h-1.495l-3.214-7.99-3.174 7.99h-.29Zm-118.73-3.942H11.748L23.496.858h11.748v23.569L23.496 36.14V12.606Z" fill="#fff"/><path d="M0 36.141V12.606L11.748.858v23.535h11.748L11.748 36.141H0Zm62.576-5.877V12.022h-9.38v18.242h-6.204V6.734h21.75v23.53h-6.166Zm44.369-14.7h-5.254V12.06h11.748V6.735H95.525V30.27h11.748c4.709 0 8.245-2.374 8.245-7.373-.038-4.998-3.574-7.333-8.573-7.333Zm-.584 9.707h-4.67v-4.709h4.67c1.457 0 2.919.584 2.919 2.335 0 1.752-1.456 2.374-2.919 2.374Zm-22.512-.005c-4.126 0-6.422-3.03-6.422-6.75 0-2.99 1.68-6.75 6.31-6.75 2.88 0 4.743 1.79 5.4 2.591l3.758-3.758a12.288 12.288 0 0 0-9.452-4.414c-6.822 0-12.187 5.037-12.187 12.37 0 6.822 5.365 12.37 12.187 12.37 4.086 0 7.7-1.967 9.963-5.036l-3.792-3.87c-1.206 1.896-3.135 3.247-5.765 3.247Zm132.152-13.789h-37.73v.695h37.73v-.695ZM124.78 36.142l1.968-1.969h-.016V.86l-1.968 1.963v33.32h.016Z" fill="#fff"/></symbol><symbol fill="none" id="icon-scroll-down" viewBox="0 0 52 166"><path d="m1 83 25 25 25-25m-25.031 25V58.083" stroke="#E1BB8F"/></symbol><symbol fill="none" id="icon-tg" viewBox="0 0 14 13"><path fill-rule="evenodd" clip-rule="evenodd" d="M1.212 5.783C4.814 4.11 7.217 3.01 8.419 2.477 11.85.957 12.564.693 13.029.685c.102-.002.33.025.479.153a.57.57 0 0 1 .176.356c.016.102.036.336.02.518-.186 2.08-.99 7.13-1.4 9.46-.173.986-.514 1.316-.845 1.349-.717.07-1.262-.505-1.957-.99-1.088-.76-1.702-1.232-2.758-1.973-1.22-.856-.43-1.326.266-2.095.182-.202 3.344-3.264 3.405-3.542.008-.034.015-.164-.057-.232-.073-.069-.18-.045-.256-.027-.11.027-1.847 1.25-5.213 3.669-.493.36-.94.536-1.34.527-.441-.01-1.29-.266-1.921-.484-.774-.268-1.39-.41-1.336-.865.028-.236.335-.479.92-.726Z" fill="#fff"/></symbol><symbol id="icon-vk" viewBox="0 0 15 8"><path fill-rule="evenodd" clip-rule="evenodd" d="M13.983.601c.103-.306 0-.532-.467-.532h-1.551c-.392 0-.57.199-.675.409 0 0-.795 1.796-1.914 2.963-.363.339-.524.452-.72.452-.104 0-.243-.113-.243-.42V.585c0-.366-.12-.532-.45-.532H5.526c-.242 0-.392.166-.392.339 0 .35.56.435.617 1.42v2.134c0 .463-.092.549-.288.549-.525 0-1.805-1.812-2.572-3.878-.15-.408-.3-.559-.692-.559H.63c-.45 0-.525.2-.525.409 0 .376.525 2.29 2.457 4.813C3.842 7.006 5.663 7.931 7.3 7.931c.991 0 1.112-.21 1.112-.559V6.065c0-.42.093-.49.404-.49.225 0 .634.114 1.55.942 1.056.984 1.235 1.43 1.823 1.43h1.55c.45 0 .664-.21.543-.618-.133-.409-.646-.995-1.31-1.7-.362-.392-.904-.828-1.066-1.037-.225-.28-.167-.393 0-.646-.017-.005 1.88-2.506 2.076-3.345Z"/></symbol></svg>