<svg xmlns="http://www.w3.org/2000/svg" xmlns:xlink="http://www.w3.org/1999/xlink">
  <symbol fill="none" id="icon-arrow-back" viewBox="0 0 16 6">
    <path d="m0 3 5 2.887V.113L0 3Zm16-.5H4.5v1H16v-1Z" fill="currentColor"/>
  </symbol>

  <symbol fill="none" id="icon-arrow-up" viewBox="0 0 49 49">
    <g filter="url(#a)" transform="rotate(-90 24.499 24.476)">
      <circle cx="24.499" cy="24.476" r="24.476" fill="#fff"/>
      <circle cx="24.499" cy="24.476" r="23.726" stroke="#862021" stroke-width="1.5"/>
    </g>
    <path d="M9.406 29.144c7.955.018 14.453-6.352 14.595-14.305.142 7.953 6.64 14.323 14.595 14.305" stroke="#862021" stroke-width="1.5"/>
    <defs>
      <filter id="a" x="-11.041" y="-11.064" width="71.079" height="71.079" filterUnits="userSpaceOnUse" color-interpolation-filters="sRGB">
        <feFlood flood-opacity="0" result="BackgroundImageFix"/>
        <feGaussianBlur in="BackgroundImageFix" stdDeviation="5.532"/>
        <feComposite in2="SourceAlpha" operator="in" result="effect1_backgroundBlur_20_181"/>
        <feBlend in="SourceGraphic" in2="effect1_backgroundBlur_20_181" result="shape"/>
      </filter>
    </defs>
  </symbol>

  <symbol fill="none" id="icon-arrow" viewBox="0 0 21 22">
    <path d="m10 21 10-10L10 1m10 10.313H.033" stroke="currentColor"/>
  </symbol>

  <symbol fill="none" id="icon-burger" viewBox="0 0 40 40">
    <path stroke="#E1BB8F" d="M28 14.5H12m16 6H12m16 6H12"/>
  </symbol>

  <symbol fill="none" id="icon-button-to-top" viewBox="0 0 41 40">
    <rect x="1" y=".5" width="39" height="39" rx="19.5" stroke="#E1BB8F"/>
    <path d="m20.5 12-2.887 5h5.774L20.5 12Zm0 16h.5V16.5h-1V28h.5Z" fill="#E1BB8F"/>
  </symbol>

  <symbol fill="none" id="icon-close-2" viewBox="0 0 40 40">
    <path d="m12 12 16 16m0-16L12 28" stroke="currentColor" stroke-linejoin="round"/>
  </symbol>

  <symbol fill="none" id="icon-close" viewBox="0 0 8 8">
    <path fill-rule="evenodd" clip-rule="evenodd" d="m4.006 4.707 2.968 2.968.707-.707L4.713 4l2.968-2.968-.707-.707-2.968 2.968-2.97-2.97-.708.706L3.3 4 .33 6.97l.706.708 2.971-2.97Z" fill="#284045"/>
  </symbol>

  <symbol fill="none" id="icon-heart" viewBox="0 0 14 12">
    <path d="M13.974 3.578C13.785 1.516 12.17 0 10.178 0c-1.32 0-2.53.67-3.23 1.714A3.658 3.658 0 0 0 3.823 0C1.832 0 .217 1.516.028 3.578c-.027.099-.08.571.108 1.366.296 1.143.97 2.162 1.938 2.981L6.947 12l4.954-4.075c.969-.82 1.642-1.838 1.938-2.98.216-.796.162-1.268.135-1.367Z" fill="currentColor"/>
  </symbol>

  <symbol fill="none" id="icon-i" viewBox="0 0 21 21">
    <circle cx="10" cy="10" r="10" fill="#fff"/>
    <path d="M9.978 6.52a.832.832 0 0 1-.825-.825c0-.45.375-.825.825-.825.45 0 .825.375.825.825 0 .45-.375.825-.825.825Zm-.6 9.48V8.155h1.245V16H9.378Z" fill="#284045"/>
  </symbol>

  <symbol id="icon-ok" viewBox="0 0 10 15">
    <path d="M4.719.586C2.59.586.867 2.249.867 4.299c0 2.051 1.724 3.714 3.852 3.714 2.127 0 3.851-1.663 3.851-3.714C8.57 2.25 6.846.586 4.719.586Zm0 5.249c-.88 0-1.592-.688-1.592-1.536 0-.847.712-1.535 1.592-1.535.879 0 1.592.688 1.592 1.535 0 .848-.713 1.536-1.592 1.536Zm1.421 5.132c1.542-.303 2.466-1.007 2.515-1.045a.985.985 0 0 0 .162-1.419 1.074 1.074 0 0 0-1.472-.156c-.01.007-.995.736-2.617.737-1.621 0-2.627-.73-2.637-.737a1.074 1.074 0 0 0-1.472.156.985.985 0 0 0 .162 1.42c.05.038 1.011.76 2.597 1.056l-2.21 2.226a.984.984 0 0 0 .027 1.428c.204.189.465.283.727.283.275 0 .549-.104.754-.31L4.728 12.5l2.26 2.121c.41.394 1.072.394 1.48 0a.984.984 0 0 0 0-1.429L6.14 10.967Z"/>
  </symbol>

  <symbol fill="none" id="icon-play" viewBox="0 0 25 28">
    <path d="M24 14 1.5 26.99V1.01L24 14Z" fill="#284045"/>
  </symbol>

  <symbol fill="none" id="icon-scroll-down" viewBox="0 0 52 166">
    <path d="m1 83 25 25 25-25m-25.031 25V58.083" stroke="#E1BB8F"/>
  </symbol>

  <symbol fill="none" id="icon-tg" viewBox="0 0 14 13">
    <path fill-rule="evenodd" clip-rule="evenodd" d="M1.212 5.783C4.814 4.11 7.217 3.01 8.419 2.477 11.85.957 12.564.693 13.029.685c.102-.002.33.025.479.153a.57.57 0 0 1 .176.356c.016.102.036.336.02.518-.186 2.08-.99 7.13-1.4 9.46-.173.986-.514 1.316-.845 1.349-.717.07-1.262-.505-1.957-.99-1.088-.76-1.702-1.232-2.758-1.973-1.22-.856-.43-1.326.266-2.095.182-.202 3.344-3.264 3.405-3.542.008-.034.015-.164-.057-.232-.073-.069-.18-.045-.256-.027-.11.027-1.847 1.25-5.213 3.669-.493.36-.94.536-1.34.527-.441-.01-1.29-.266-1.921-.484-.774-.268-1.39-.41-1.336-.865.028-.236.335-.479.92-.726Z" fill="#fff"/>
  </symbol>

  <symbol id="icon-vk" viewBox="0 0 15 8">
    <path fill-rule="evenodd" clip-rule="evenodd" d="M13.983.601c.103-.306 0-.532-.467-.532h-1.551c-.392 0-.57.199-.675.409 0 0-.795 1.796-1.914 2.963-.363.339-.524.452-.72.452-.104 0-.243-.113-.243-.42V.585c0-.366-.12-.532-.45-.532H5.526c-.242 0-.392.166-.392.339 0 .35.56.435.617 1.42v2.134c0 .463-.092.549-.288.549-.525 0-1.805-1.812-2.572-3.878-.15-.408-.3-.559-.692-.559H.63c-.45 0-.525.2-.525.409 0 .376.525 2.29 2.457 4.813C3.842 7.006 5.663 7.931 7.3 7.931c.991 0 1.112-.21 1.112-.559V6.065c0-.42.093-.49.404-.49.225 0 .634.114 1.55.942 1.056.984 1.235 1.43 1.823 1.43h1.55c.45 0 .664-.21.543-.618-.133-.409-.646-.995-1.31-1.7-.362-.392-.904-.828-1.066-1.037-.225-.28-.167-.393 0-.646-.017-.005 1.88-2.506 2.076-3.345Z"/>
  </symbol>

  <symbol id="icon-logo-ovitrino" viewBox="0 0 160 160">
    <!-- Outer rounded square -->
    <rect x="10" y="10" width="140" height="140" rx="24" fill="none" stroke="#D8B48A" stroke-width="3"/>
    <!-- Top-left: rounded square -->
    <rect x="28" y="28" width="44" height="44" rx="10" fill="none" stroke="#D8B48A" stroke-width="3"/>
    <!-- Top-right: circle -->
    <circle cx="108" cy="50" r="22" fill="none" stroke="#D8B48A" stroke-width="3"/>
    <!-- Bottom-left: circle -->
    <circle cx="50" cy="108" r="22" fill="none" stroke="#D8B48A" stroke-width="3"/>
    <!-- Bottom-right: rounded square -->
    <rect x="86" y="86" width="44" height="44" rx="10" fill="none" stroke="#D8B48A" stroke-width="3"/>
  </symbol>
</svg>
